<svg width="1394" height="200" viewBox="0 0 1394 200" fill="none" xmlns="http://www.w3.org/2000/svg">
<path fill-rule="evenodd" clip-rule="evenodd" d="M35.7339 69.7667C33.0006 35.3 58.5006 0 101.134 0C115.267 0 130.134 3.6 142.634 9.53333C176.534 25.5333 200.001 60.0333 200.001 100C200.001 136.933 179.967 169.2 150.101 186.5C164.501 172.367 173.034 152.1 171.234 129.633C168.334 92.9 133.701 63 102.267 63C73.0339 63 61.6006 88.5 64.4339 105.833C65.5006 112.333 68.3006 118.267 72.3673 123.1C67.1006 120.267 62.0006 116.633 57.3006 112.267C44.6339 100.467 36.9673 85.3667 35.7339 69.7667ZM164.267 130.233C167 164.7 141.5 200 98.8667 200C84.7333 200 69.8667 196.4 57.3667 190.467C23.4667 174.467 0 139.967 0 100C0 63.0667 20.0333 30.8 49.9 13.5C35.5 27.6333 26.9667 47.9 28.7667 70.3667C31.6667 107.1 66.3 137 97.7333 137C126.967 137 138.4 111.5 135.567 94.1667C134.5 87.6667 131.7 81.7333 127.633 76.9C132.9 79.7333 138 83.3667 142.7 87.7333C155.367 99.5333 163.033 114.633 164.267 130.233ZM309.27 110.825V94.8928H362.601C363.144 97.7004 363.464 101.043 363.464 104.661C363.464 116.611 360.192 131.404 349.67 141.932C339.429 152.602 326.345 158.291 308.994 158.291C276.853 158.291 249.831 132.115 249.831 99.9647C249.831 67.8149 276.853 41.6387 308.994 41.6387C326.771 41.6387 339.429 48.6108 348.959 57.715L337.722 68.9544C330.894 62.5521 321.652 57.5741 308.994 57.5741C285.529 57.5741 267.182 76.4933 267.182 99.9677C267.182 123.442 285.529 142.361 308.994 142.361C324.213 142.361 332.888 136.244 338.433 130.696C342.953 126.176 345.928 119.692 347.085 110.828H309.273L309.27 110.825ZM407.04 158.295C427.804 158.295 444.729 142.362 444.729 120.738C444.729 98.9731 427.804 83.1816 407.04 83.1816C386.277 83.1816 369.352 99.1141 369.352 120.738C369.352 142.362 386.277 158.295 407.04 158.295ZM407.043 97.9775C418.421 97.9775 428.233 107.223 428.233 120.738C428.233 134.11 418.424 143.499 407.043 143.499C395.663 143.499 385.851 134.254 385.851 120.738C385.851 107.223 395.666 97.9775 407.043 97.9775ZM526.948 120.738C526.948 142.362 510.023 158.295 489.259 158.295C468.495 158.295 451.57 142.362 451.57 120.738C451.57 99.1141 468.495 83.1816 489.259 83.1816C510.023 83.1816 526.948 98.9731 526.948 120.738ZM510.451 120.738C510.451 107.223 500.639 97.9775 489.262 97.9775C477.885 97.9775 468.07 107.223 468.07 120.738C468.07 134.254 477.882 143.499 489.262 143.499C500.642 143.499 510.451 134.11 510.451 120.738ZM605.755 152.888V85.4577H590.11V91.5752H589.54C585.843 87.164 578.733 83.1816 569.772 83.1816C550.997 83.1816 533.79 99.8248 533.79 120.879C533.79 141.934 550.997 158.292 569.772 158.292C578.733 158.292 585.843 154.309 589.54 149.757H590.11V155.164C590.11 169.531 582.43 177.214 570.057 177.214C559.957 177.214 553.702 169.96 551.141 163.842L536.777 169.819C540.903 179.775 551.852 192.01 570.057 192.01C589.399 192.01 605.755 180.63 605.755 152.888ZM571.194 97.9746C582.43 97.9746 591.247 107.649 591.247 120.879C591.247 133.969 582.574 143.499 571.194 143.499C559.814 143.499 550.286 134.11 550.286 120.879C550.286 107.649 559.957 97.9746 571.194 97.9746ZM633.697 45.9941V156.018H617.2V45.9941H633.697ZM710.205 141.648L697.406 133.113L697.403 133.11C693.135 139.369 687.303 143.495 678.912 143.495C670.522 143.495 664.548 139.654 660.707 132.115L710.912 111.345L709.206 107.078C706.078 98.6844 696.407 83.1777 677.065 83.1777C657.723 83.1777 641.652 98.3995 641.652 120.734C641.652 141.789 657.582 158.291 678.915 158.291C696.125 158.291 706.078 147.765 710.205 141.648ZM691.573 105.656L658.011 119.598L658.008 119.601C657.582 105.09 669.244 97.6917 677.635 97.6917C684.178 97.6917 689.723 100.963 691.573 105.656ZM760 52.6113H792.961C829.302 52.6113 845.989 72.59 845.989 104.508C845.989 136.287 829.302 156.128 792.961 156.128H760V52.6113ZM792.513 143.706C821.165 143.706 831.094 128.903 831.094 104.508C831.094 79.9742 821.199 64.8608 792.513 64.8608H774.619V143.706H792.513ZM867.191 122.865H924.666C924.804 120.173 924.804 117.965 924.804 115.895C924.804 96.9858 911.22 81.0098 889.636 81.0098C867.777 81.0098 852.848 96.5372 852.848 119.759C852.848 142.706 867.915 157.922 889.498 157.922C906.772 157.922 918.736 147.571 922.735 133.803H908.117C905.151 141.049 898.669 145.777 889.498 145.777C878.12 145.777 868.087 137.806 867.191 122.865ZM889.498 93.1557C901.014 93.1557 909.737 100.54 910.323 112.513H867.466C869.121 99.8152 878.569 93.1557 889.498 93.1557ZM1004.31 122.865H946.837C947.734 137.806 957.767 145.777 969.145 145.777C978.316 145.777 984.798 141.049 987.763 133.803H1002.38C998.382 147.571 986.418 157.922 969.145 157.922C947.561 157.922 932.494 142.706 932.494 119.759C932.494 96.5372 947.423 81.0098 969.283 81.0098C990.866 81.0098 1004.45 96.9858 1004.45 115.895C1004.45 117.965 1004.45 120.173 1004.31 122.865ZM989.97 112.513C989.384 100.54 980.661 93.1557 969.145 93.1557C958.215 93.1557 948.768 99.8152 947.113 112.513H989.97ZM1026.31 82.7695H1013.18V188.667H1027.79V144.603C1032.83 153.057 1041.97 157.922 1053.65 157.922C1075.2 157.922 1089.99 141.808 1089.99 119.621C1089.99 97.4344 1075.2 81.0098 1053.79 81.0098C1040.66 81.0098 1032.38 87.3588 1027.79 94.4669L1026.31 82.7695ZM1051.45 93.7078C1065.34 93.7078 1075.1 104.232 1075.1 119.449C1075.1 134.838 1065.34 145.19 1051.45 145.19C1037.69 145.19 1027.79 134.838 1027.79 119.449C1027.79 104.197 1037.69 93.7078 1051.45 93.7078ZM1204.05 52.6113V156.128H1189.43V78.1799L1156.91 141.325H1145.67L1113.02 78.1799V156.128H1098.4V52.6113H1115.54L1151.29 122.554L1186.91 52.6113H1204.05ZM1222.66 49.6426C1217.18 49.6426 1213.04 53.5072 1213.04 58.821C1213.04 64.1349 1217.18 68.1375 1222.66 68.1375C1228.28 68.1375 1232.42 64.1349 1232.42 58.821C1232.42 53.4727 1228.28 49.6426 1222.66 49.6426ZM1230.04 82.7678H1215.42V156.126H1230.04V82.7678ZM1309.1 113.824V156.128H1294.62V115.308C1294.62 100.816 1288.56 93.5698 1276.73 93.5698C1264.77 93.5698 1256.04 102.3 1256.04 118.276V156.128H1241.42V82.7695H1254.42L1255.46 95.6401C1260.18 86.6342 1269.35 81.0098 1280.73 81.0098C1298.31 81.0098 1309.1 91.81 1309.1 113.824ZM1353.34 80.6649C1331.76 80.6649 1317.14 96.779 1317.14 118.966C1317.14 141.153 1331.79 157.578 1353.17 157.578C1366.34 157.578 1374.62 151.229 1379.34 144.121L1380.82 155.818H1393.96V49.334H1379.34V93.9841C1374.34 85.5302 1365.17 80.6649 1353.34 80.6649ZM1355.55 93.3975C1369.44 93.3975 1379.2 103.749 1379.2 119.139C1379.2 134.355 1369.44 144.845 1355.55 144.88C1341.79 144.88 1331.9 134.355 1331.9 119.139C1331.9 103.749 1341.79 93.3975 1355.55 93.3975Z" fill="#31302D"/>
</svg>
